<svg xmlns="http://www.w3.org/2000/svg" xmlns:xlink="http://www.w3.org/1999/xlink" viewBox="0,0,256,256" width="48px" height="48px" fill-rule="nonzero"><g fill="none" fill-rule="nonzero" stroke="none" stroke-width="1" stroke-linecap="butt" stroke-linejoin="miter" stroke-miterlimit="10" stroke-dasharray="" stroke-dashoffset="0" font-family="none" font-weight="none" font-size="none" text-anchor="none" style="mix-blend-mode: normal"><g transform="scale(5.33333,5.33333)"><path d="M37,45h-26c-1.657,0 -3,-1.343 -3,-3v-36c0,-1.657 1.343,-3 3,-3h19l10,10v29c0,1.657 -1.343,3 -3,3z" fill="#80b287"></path><path d="M40,13h-10v-10z" fill="#c8e6c9"></path><path d="M30,13l10,10v-10z" fill="#2e7d32"></path><path d="M31,23h-14h-2v2v2v2v2v2v2v2h18v-2v-2v-2v-2v-2v-2v-2zM17,25h4v2h-4zM17,29h4v2h-4zM17,33h4v2h-4zM31,35h-8v-2h8zM31,31h-8v-2h8zM31,27h-8v-2h8z" fill="#546b54"></path></g></g></svg>